<mxfile host="app.diagrams.net" agent="Mozilla/5.0 (Windows NT 10.0; Win64; x64) AppleWebKit/537.36 (KHTML, like Gecko) Chrome/130.0.0.0 Safari/537.36" version="24.8.2">
  <diagram name="PÃ¡gina-1" id="aKMEOmgvfjYQljzYLeH6">
    <mxGraphModel dx="880" dy="434" grid="1" gridSize="10" guides="1" tooltips="1" connect="1" arrows="1" fold="1" page="1" pageScale="1" pageWidth="827" pageHeight="1169" math="0" shadow="0">
      <root>
        <mxCell id="0" />
        <mxCell id="1" parent="0" />
        <mxCell id="djReOFko0KtQilo-Ofs2-1" value="CLIENTE" style="whiteSpace=wrap;html=1;align=center;" vertex="1" parent="1">
          <mxGeometry x="20" y="40" width="100" height="40" as="geometry" />
        </mxCell>
        <mxCell id="djReOFko0KtQilo-Ofs2-3" value="id" style="ellipse;whiteSpace=wrap;html=1;align=center;fontStyle=4;" vertex="1" parent="1">
          <mxGeometry x="45" y="90" width="50" height="20" as="geometry" />
        </mxCell>
        <mxCell id="djReOFko0KtQilo-Ofs2-4" value="nome" style="ellipse;whiteSpace=wrap;html=1;align=center;" vertex="1" parent="1">
          <mxGeometry x="45" y="120" width="50" height="20" as="geometry" />
        </mxCell>
        <mxCell id="djReOFko0KtQilo-Ofs2-5" value="documento" style="ellipse;whiteSpace=wrap;html=1;align=center;" vertex="1" parent="1">
          <mxGeometry x="32.5" y="150" width="75" height="30" as="geometry" />
        </mxCell>
        <mxCell id="djReOFko0KtQilo-Ofs2-6" value="tipo" style="ellipse;whiteSpace=wrap;html=1;align=center;" vertex="1" parent="1">
          <mxGeometry x="45" y="190" width="50" height="20" as="geometry" />
        </mxCell>
        <mxCell id="djReOFko0KtQilo-Ofs2-8" value="contato" style="ellipse;shape=doubleEllipse;margin=3;whiteSpace=wrap;html=1;align=center;" vertex="1" parent="1">
          <mxGeometry x="32.5" y="220" width="75" height="30" as="geometry" />
        </mxCell>
        <mxCell id="djReOFko0KtQilo-Ofs2-9" value="endereco" style="ellipse;shape=doubleEllipse;margin=3;whiteSpace=wrap;html=1;align=center;" vertex="1" parent="1">
          <mxGeometry x="32.5" y="260" width="75" height="30" as="geometry" />
        </mxCell>
        <mxCell id="djReOFko0KtQilo-Ofs2-18" value="CONTEINER" style="whiteSpace=wrap;html=1;align=center;" vertex="1" parent="1">
          <mxGeometry x="420" y="35" width="100" height="40" as="geometry" />
        </mxCell>
        <mxCell id="djReOFko0KtQilo-Ofs2-19" value="id" style="ellipse;whiteSpace=wrap;html=1;align=center;fontStyle=4;" vertex="1" parent="1">
          <mxGeometry x="445" y="85" width="50" height="20" as="geometry" />
        </mxCell>
        <mxCell id="djReOFko0KtQilo-Ofs2-20" value="tipo" style="ellipse;whiteSpace=wrap;html=1;align=center;" vertex="1" parent="1">
          <mxGeometry x="445" y="115" width="50" height="20" as="geometry" />
        </mxCell>
        <mxCell id="djReOFko0KtQilo-Ofs2-21" value="status" style="ellipse;whiteSpace=wrap;html=1;align=center;" vertex="1" parent="1">
          <mxGeometry x="444" y="150" width="50" height="20" as="geometry" />
        </mxCell>
        <mxCell id="djReOFko0KtQilo-Ofs2-22" value="categoria" style="ellipse;whiteSpace=wrap;html=1;align=center;" vertex="1" parent="1">
          <mxGeometry x="432.5" y="180" width="75" height="30" as="geometry" />
        </mxCell>
        <mxCell id="djReOFko0KtQilo-Ofs2-23" value="MOVIMENTACAO" style="whiteSpace=wrap;html=1;align=center;" vertex="1" parent="1">
          <mxGeometry x="710" y="35" width="110" height="40" as="geometry" />
        </mxCell>
        <mxCell id="djReOFko0KtQilo-Ofs2-24" value="tipo" style="ellipse;whiteSpace=wrap;html=1;align=center;" vertex="1" parent="1">
          <mxGeometry x="735" y="80" width="50" height="20" as="geometry" />
        </mxCell>
        <mxCell id="djReOFko0KtQilo-Ofs2-25" value="data_inicio" style="ellipse;whiteSpace=wrap;html=1;align=center;" vertex="1" parent="1">
          <mxGeometry x="728.75" y="107.5" width="62.5" height="25" as="geometry" />
        </mxCell>
        <mxCell id="djReOFko0KtQilo-Ofs2-26" value="hora_inicio" style="ellipse;whiteSpace=wrap;html=1;align=center;" vertex="1" parent="1">
          <mxGeometry x="728.75" y="140" width="62.5" height="25" as="geometry" />
        </mxCell>
        <mxCell id="djReOFko0KtQilo-Ofs2-27" value="hora_fim" style="ellipse;whiteSpace=wrap;html=1;align=center;" vertex="1" parent="1">
          <mxGeometry x="728.75" y="210" width="62.5" height="25" as="geometry" />
        </mxCell>
        <mxCell id="djReOFko0KtQilo-Ofs2-28" value="data_fim" style="ellipse;whiteSpace=wrap;html=1;align=center;" vertex="1" parent="1">
          <mxGeometry x="728.75" y="175" width="62.5" height="25" as="geometry" />
        </mxCell>
        <mxCell id="djReOFko0KtQilo-Ofs2-31" value="CLIENTE_CONTAINER" style="shape=associativeEntity;whiteSpace=wrap;html=1;align=center;" vertex="1" parent="1">
          <mxGeometry x="180" y="30" width="160" height="60" as="geometry" />
        </mxCell>
        <mxCell id="djReOFko0KtQilo-Ofs2-32" value="" style="edgeStyle=entityRelationEdgeStyle;fontSize=12;html=1;endArrow=ERmandOne;startArrow=ERmandOne;rounded=0;exitX=1;exitY=0.5;exitDx=0;exitDy=0;entryX=0;entryY=0.5;entryDx=0;entryDy=0;" edge="1" parent="1" source="djReOFko0KtQilo-Ofs2-1" target="djReOFko0KtQilo-Ofs2-31">
          <mxGeometry width="100" height="100" relative="1" as="geometry">
            <mxPoint x="150" y="215" as="sourcePoint" />
            <mxPoint x="250" y="115" as="targetPoint" />
            <Array as="points">
              <mxPoint x="-50" y="35" />
            </Array>
          </mxGeometry>
        </mxCell>
        <mxCell id="djReOFko0KtQilo-Ofs2-35" value="" style="edgeStyle=entityRelationEdgeStyle;fontSize=12;html=1;endArrow=ERmandOne;startArrow=ERmandOne;rounded=0;exitX=1;exitY=0.5;exitDx=0;exitDy=0;" edge="1" parent="1" source="djReOFko0KtQilo-Ofs2-31">
          <mxGeometry width="100" height="100" relative="1" as="geometry">
            <mxPoint x="332.5" y="195" as="sourcePoint" />
            <mxPoint x="420" y="60" as="targetPoint" />
          </mxGeometry>
        </mxCell>
        <mxCell id="djReOFko0KtQilo-Ofs2-36" value="faz" style="shape=rhombus;perimeter=rhombusPerimeter;whiteSpace=wrap;html=1;align=center;" vertex="1" parent="1">
          <mxGeometry x="570" y="35" width="80" height="40" as="geometry" />
        </mxCell>
        <mxCell id="djReOFko0KtQilo-Ofs2-40" value="" style="edgeStyle=entityRelationEdgeStyle;fontSize=12;html=1;endArrow=ERmandOne;rounded=0;entryX=1;entryY=0.5;entryDx=0;entryDy=0;exitX=0;exitY=0.5;exitDx=0;exitDy=0;" edge="1" parent="1" source="djReOFko0KtQilo-Ofs2-36" target="djReOFko0KtQilo-Ofs2-18">
          <mxGeometry width="100" height="100" relative="1" as="geometry">
            <mxPoint x="530" y="200" as="sourcePoint" />
            <mxPoint x="630" y="100" as="targetPoint" />
          </mxGeometry>
        </mxCell>
        <mxCell id="djReOFko0KtQilo-Ofs2-41" value="" style="edgeStyle=entityRelationEdgeStyle;fontSize=12;html=1;endArrow=ERoneToMany;rounded=0;entryX=0;entryY=0.5;entryDx=0;entryDy=0;" edge="1" parent="1" target="djReOFko0KtQilo-Ofs2-23">
          <mxGeometry width="100" height="100" relative="1" as="geometry">
            <mxPoint x="650" y="55" as="sourcePoint" />
            <mxPoint x="670" y="75" as="targetPoint" />
          </mxGeometry>
        </mxCell>
      </root>
    </mxGraphModel>
  </diagram>
</mxfile>
